<svg xmlns="http://www.w3.org/2000/svg" width="220" height="220"><g fill="none" fill-rule="evenodd"><path d="M0 0h220v220H0z"/><path fill="#498DDD" d="M146 140H38v-17a6 6 0 0 0-6-6H14V41a2 2 0 0 1 2-2h176a2 2 0 0 1 2 2v38h-42a6 6 0 0 0-6 6v55z"/><path fill="#D9D9D9" d="M120 172h8a2 2 0 0 1 2 2v5a2 2 0 0 1-2 2H80a2 2 0 0 1-2-2v-5a2 2 0 0 1 2-2h8v-12H38v-16h108v16h-26v12zm-16-16a4 4 0 1 0 0-8 4 4 0 0 0 0 8zM0 171h34v6a4 4 0 0 1-4 4H4a4 4 0 0 1-4-4v-6zm17 7a2 2 0 1 0 0-4 2 2 0 0 0 0 4z"/><path fill="#7CC0FF" d="M4 121h26a4 4 0 0 1 4 4v44H0v-44a4 4 0 0 1 4-4z"/><path fill="#D9D9D9" d="M150 165h70v12a4 4 0 0 1-4 4h-62a4 4 0 0 1-4-4v-12zm35 11a3 3 0 1 0 0-6 3 3 0 0 0 0 6z"/><path fill="#7CC0FF" d="M154 83h62a4 4 0 0 1 4 4v76h-70V87a4 4 0 0 1 4-4z"/></g></svg>