<svg xmlns="http://www.w3.org/2000/svg" width="220" height="220"><g fill="none" fill-rule="evenodd"><path d="M1 0h220v220H1z"/><g transform="rotate(45 106.728 180.184)"><path fill="#73D393" d="M13.542 115.321L0 134v54l21.888-22.643c-5.682-15.568-8.464-32.247-8.346-50.036zm86.309-3.596L116 134v54l-24.203-25.038a36.091 36.091 0 0 0 1.82-5.731c3.75-16.431 5.828-31.6 6.234-45.506zM22.296 80.718c6.4-32.187 16.84-58.529 31.318-79.025a4 4 0 0 1 6.745.33c16.698 29.368 27.344 55.6 31.937 78.695 4.742 23.846 1.7 53.568-9.125 89.164a4 4 0 0 1-3.827 2.836H36.66a4 4 0 0 1-3.524-2.106c-13.975-25.996-17.588-55.96-10.84-89.894z"/><path fill="#FFB33D" d="M58 198a3 3 0 0 1 3 3v44a3 3 0 0 1-6 0v-44a3 3 0 0 1 3-3zm-20-10a3 3 0 0 1 3 3v34a3 3 0 0 1-6 0v-34a3 3 0 0 1 3-3zm40 0a3 3 0 0 1 3 3v34a3 3 0 0 1-6 0v-34a3 3 0 0 1 3-3z"/><circle cx="58" cy="98" r="20" fill="#53AB70"/></g></g></svg>