<svg width="220" height="220" xmlns="http://www.w3.org/2000/svg" xmlns:xlink="http://www.w3.org/1999/xlink"><defs><path d="M6 0h110a6 6 0 0 1 6 6v208a6 6 0 0 1-6 6H6a6 6 0 0 1-6-6V6a6 6 0 0 1 6-6z" id="a"/></defs><g fill="none" fill-rule="evenodd"><path d="M0 0h220v220H0z"/><g transform="translate(49)"><mask id="b" fill="#fff"><use xlink:href="#a"/></mask><use fill="#7CC0FF" xlink:href="#a"/><path fill="#498DDD" mask="url(#b)" d="M-18 182h160v52H-18z"/></g><ellipse fill="#7CC0FF" cx="110" cy="202" rx="7.176" ry="7.2"/><path fill="#FFF" d="M67 46h86v67.405H67z"/><path d="M82.09 60.036h8.58l12.185 20.033h.081V60.036h6.315v28.828h-8.258L88.485 68.342h-.081v20.522h-6.315V60.036zm40.034 16.531l-10.768-16.531h7.853l6.072 10.79 6.436-10.79h7.49l-10.768 16.531v12.297h-6.315V76.567z" fill="#3E66E7"/><path d="M81.664 96.226h1.133c.281 0 .51-.035.685-.106.175-.07.311-.157.408-.26a.826.826 0 0 0 .199-.334c.035-.12.052-.228.052-.326s-.017-.206-.052-.326a.826.826 0 0 0-.199-.334 1.134 1.134 0 0 0-.408-.26 1.876 1.876 0 0 0-.685-.106h-1.133v2.052zm-.534-2.54h1.506c.075 0 .178.002.307.007.13.006.27.022.421.05.151.026.305.07.462.13a1.305 1.305 0 0 1 .728.692c.081.174.122.385.122.635 0 .277-.048.505-.142.684-.094.18-.213.324-.356.436a1.493 1.493 0 0 1-.474.248 3.05 3.05 0 0 1-.494.114l1.668 2.769h-.607l-1.611-2.736h-.996v2.736h-.534v-5.766zm11.253 0h3.506v.488h-2.971v2.052h2.785v.489h-2.785v2.247h3.1v.489h-3.635v-5.766zm13.01 0h.551l2.413 5.765h-.6l-.623-1.531h-3.036l-.647 1.531h-.559l2.502-5.766zm.252.586l-1.336 3.16h2.631l-1.295-3.16zm9.99-.587h.535v5.277h2.672v.489h-3.206v-5.766zm11.33.489h-1.96v-.489h4.454v.489h-1.96v5.277h-.534v-5.277zm11.1 2.793l-2.105-3.282h.64l1.732 2.737 1.773-2.737h.6l-2.106 3.282v2.484h-.534v-2.484z" fill="#3B3B3B"/><g transform="translate(77 143)"><circle fill="#FFF" cx="13.5" cy="13.5" r="13.5"/><path d="M20.195 13.802a1.76 1.76 0 0 0-.402-.782 6.072 6.072 0 0 0-.723-.666l-.103-.08a6.953 6.953 0 0 0-1.478-.844 8.335 8.335 0 0 0-.743-.276 9.298 9.298 0 0 0-1.024-.26c-.269-.052-.55-.097-.848-.13a12.266 12.266 0 0 0-3.543.121c-.415.08-.798.177-1.148.291-.025.009-.053.016-.078.024-.027.01-.05.02-.076.028a8.199 8.199 0 0 0-.92.387 7.19 7.19 0 0 0-.836.486 6.602 6.602 0 0 0-.31.227c-.32.247-.57.488-.756.692-.032.035-.056.076-.085.114a1.82 1.82 0 0 0-.372 1.091v1.114c0 .614.487 1.075 1.01.954l2.272-.524c.497-.114.795-.706.635-1.262l-.288-.995c.537-.334 1.33-.62 2.505-.695l.083-.005a9.657 9.657 0 0 1 1.066 0c.029 0 .055.004.083.005 1.174.075 1.968.36 2.505.695l-.288.995c-.16.556.138 1.148.635 1.262l2.273.524c.522.12 1.009-.34 1.009-.954v-1.114c0-.144-.023-.286-.055-.423" fill="#F97361"/></g><g transform="translate(116 143)"><circle fill="#FFF" cx="13.5" cy="13.5" r="13.5"/><path d="M7.875 10.688v5.624h8.438V13.97l2.812 2.344v-5.625l-2.812 2.343v-2.345z" fill="#75DAA0"/></g></g></svg>