<svg xmlns="http://www.w3.org/2000/svg" xmlns:xlink="http://www.w3.org/1999/xlink" width="220" height="220"><defs><path id="a" d="M2.409 12.829h37.606A1.7 1.7 0 0 1 41.41 15.5L22.607 42.473a1.7 1.7 0 0 1-2.79 0L1.015 15.501A1.7 1.7 0 0 1 2.41 12.83z"/></defs><g fill="none" fill-rule="evenodd"><path d="M0 0h220v220H0z"/><path fill="#7CC0FF" d="M66.283 41h132.434a1.7 1.7 0 0 1 1.7 1.7v98.822a1.7 1.7 0 0 1-1.7 1.7H66.283a1.7 1.7 0 0 1-1.7-1.7V42.7a1.7 1.7 0 0 1 1.7-1.7z"/><path fill="#498DDD" d="M142.882 111.38c-.3-3.3-.185-5.603-.185-8.618 1.494-.784 4.171-5.784 4.624-10.007 1.174-.096 3.027-1.243 3.569-5.77.293-2.43-.87-3.797-1.578-4.227 1.912-5.75 5.882-23.54-7.343-25.38-1.361-2.39-4.846-3.6-9.376-3.6-18.12.333-20.306 13.688-16.333 28.98-.706.43-1.869 1.798-1.578 4.228.544 4.526 2.394 5.673 3.569 5.769.45 4.221 3.234 9.223 4.732 10.007 0 3.015.112 5.318-.187 8.618-2.58 6.94-17.75 7.716-24.36 14.175-4.408 4.307-7.202 10.247-8.384 17.822h84.789c.624-5.546-2.206-11.464-8.49-17.754-9.424-9.436-20.882-7.278-23.47-14.243z"/><g transform="translate(85.807 114.26)"><ellipse cx="80.651" cy="12.778" fill="#FFF" rx="12.734" ry="12.778"/><path fill="#7CC0FF" d="M84.464 13.294h.891c0 2.315-2.39 4.693-4.453 4.693v2.457h-.891v-2.457c-2.37 0-4.454-2.635-4.454-4.693h.891c0 1.901 1.713 3.799 4.008 3.799 2.296 0 4.008-1.898 4.008-3.799zm-1.113-.213a2.895 2.895 0 1 1-5.79 0V9.71a2.895 2.895 0 1 1 5.79 0v3.37z"/><ellipse cx="46.693" cy="12.778" fill="#F97361" rx="12.734" ry="12.778"/><path fill="#FFF" d="M53.008 13.063a1.668 1.668 0 0 0-.38-.74 5.734 5.734 0 0 0-.682-.63 6.554 6.554 0 0 0-1.491-.874 7.846 7.846 0 0 0-.7-.261 8.747 8.747 0 0 0-.966-.246 9.814 9.814 0 0 0-.8-.124 11.532 11.532 0 0 0-3.342.115 8.766 8.766 0 0 0-1.083.275c-.024.009-.05.015-.074.023l-.072.027a7.718 7.718 0 0 0-.867.366 6.73 6.73 0 0 0-.789.46 6.229 6.229 0 0 0-.293.215 5.605 5.605 0 0 0-.712.654c-.03.034-.053.072-.08.108a1.727 1.727 0 0 0-.351 1.033v1.055c0 .58.459 1.017.951.903l2.144-.496c.47-.109.75-.67.6-1.195l-.273-.942c.507-.316 1.256-.586 2.364-.657.026-.002.05-.005.078-.006a9.078 9.078 0 0 1 1.006 0c.027.001.051.004.078.006 1.108.07 1.856.34 2.363.657l-.272.942c-.15.526.13 1.086.6 1.195l2.143.496c.492.114.952-.322.952-.903v-1.055c0-.137-.021-.27-.052-.4"/><ellipse cx="12.734" cy="12.778" fill="#FFF" rx="12.734" ry="12.778"/><path fill="#7CC0FF" d="M6.792 9.37v6.815h8.86v-2.84l3.025 2.84V9.37l-3.026 2.84V9.37z"/></g><path fill="#D9D9D9" d="M147.267 178.63h70.312a1.7 1.7 0 0 0 1.407-2.654l-18.465-27.23a1.7 1.7 0 0 0-1.407-.746H65.886a1.7 1.7 0 0 0-1.407.746l-18.465 27.23a1.7 1.7 0 0 0 1.408 2.654h71.161l1.85-4.26h24.984l1.85 4.26z"/><g transform="matrix(-1 0 0 1 56 91)"><path fill="#D9D9D9" d="M19.515 40.197h3.394v19.671h-3.394z"/><path fill="#D9D9D9" d="M32.508 65H9.916a.85.85 0 0 1-.348-1.626l11.297-5.06a.85.85 0 0 1 .695 0l11.296 5.06A.85.85 0 0 1 32.508 65z"/><ellipse cx="43.273" cy="12.829" fill="#FFB33D" rx="12.727" ry="12.829"/><mask id="b" fill="#fff"><use xlink:href="#a"/></mask><use fill="#D9D9D9" xlink:href="#a"/><path fill="#BA7CFF" d="M-4.242 24.803h50.909l-25.455 19.67z" mask="url(#b)"/><ellipse cx="43.273" cy="12.829" fill="#FFB33D" fill-opacity=".5" mask="url(#b)" rx="12.727" ry="12.829"/></g></g></svg>